<?xml version="1.0" encoding="UTF-8"?>
<!DOCTYPE svg PUBLIC "-//W3C//DTD SVG 1.1//EN" "http://www.w3.org/Graphics/SVG/1.1/DTD/svg11.dtd">
<!-- Creator: CorelDRAW -->
<svg xmlns="http://www.w3.org/2000/svg" xml:space="preserve" width="29.259mm" height="22.5822mm" version="1.1" style="shape-rendering:geometricPrecision; text-rendering:geometricPrecision; image-rendering:optimizeQuality; fill-rule:evenodd; clip-rule:evenodd"
viewBox="0 0 588.48 454.19"
 xmlns:xlink="http://www.w3.org/1999/xlink"
 xmlns:xodm="http://www.corel.com/coreldraw/odm/2003">
 <defs>
  <style type="text/css">
   <![CDATA[
    .fil0 {fill:#219F0D}
   ]]>
  </style>
 </defs>
 <g id="Слой_x0020_1">
  <metadata id="CorelCorpID_0Corel-Layer"/>
  <path class="fil0" d="M79.02 454.19l430.45 0c43.46,0 79.02,-35.56 79.02,-79.02l0 -296.16c0,-17.33 -5.66,-33.4 -15.21,-46.46 -0.69,0.56 -1.39,1.15 -2.26,2.03l-103.99 95.97c-1.64,1.52 -2.63,2.01 -4.32,3.72l-8.61 8.05c-1.79,1.82 -2.87,2.41 -4.61,4.01l-25.84 24.15c-6.59,6.34 -14.26,12.61 -21.55,19.83l-43.38 39.93c-18.73,18.03 -36.12,30.3 -66.81,30.3 -27.45,0 -48.01,-15.85 -65.93,-34.05 -1.72,-1.75 -2.58,-2.22 -4.31,-3.74 -1.62,-1.43 -2.7,-2.87 -4.32,-4.3 -1.73,-1.52 -2.58,-1.99 -4.31,-3.74 -1.62,-1.64 -2.71,-2.84 -4.45,-4.17 -1.66,-1.27 -2.63,-2.33 -4.17,-3.88l-117.25 -108c-1.87,-1.56 -2.54,-1.99 -4.29,-3.76l-47.92 -44.02c-1.59,-1.27 -2.6,-2.52 -4.07,-3.97l-15.72 -14.33c-9.53,13.05 -15.18,29.11 -15.18,46.42l0 296.16c0,43.46 35.56,79.02 79.02,79.02zm475.51 -439.99c-12.81,-8.94 -28.35,-14.21 -45.06,-14.21l-430.45 0c-16.81,0 -32.43,5.32 -45.27,14.36 4.18,3.79 8,7.22 9.5,8.73l16.37 15.24c7.18,7.21 16.98,15.23 24.7,22.99l45.11 41.65c1.75,1.76 2.42,2.2 4.29,3.76l24.74 22.95c9.14,9.25 23.35,21.03 32.74,30.47 1.68,1.69 2.69,2.14 4.33,3.71l28.82 26.92c10.47,8.08 30.25,29.99 42.16,37.13 5.82,3.49 15.73,7.36 24.82,7.36 23.14,0 32.17,-6.63 47.53,-21.42l8.05 -7.47c1.64,-1.57 2.65,-2.03 4.33,-3.71 1.39,-1.39 2.56,-2.77 4.04,-4 7.56,-6.32 27.81,-26.51 32.83,-30.38 3.25,-2.51 4.97,-5.09 8.04,-7.47 5.9,-4.55 18,-17.08 24.87,-22.82l16.7 -15.48c1.38,-1.36 2.33,-2.39 3.71,-3.76l8.34 -7.74c1.73,-1.52 2.59,-1.99 4.31,-3.74 1.3,-1.32 2.38,-2.54 3.74,-3.73l45.38 -41.96c1.6,-1.61 2.48,-1.99 4.04,-3.43l24.71 -22.98c1.47,-1.46 2.5,-2.6 4,-4.04 2.93,-2.83 11.09,-10.09 18.57,-16.92z"/>
 </g>
</svg>
