<?xml version="1.0" encoding="UTF-8"?>
<!DOCTYPE svg PUBLIC "-//W3C//DTD SVG 1.1//EN" "http://www.w3.org/Graphics/SVG/1.1/DTD/svg11.dtd">
<!-- Creator: CorelDRAW -->
<svg xmlns="http://www.w3.org/2000/svg" xml:space="preserve" width="30mm" height="29.2706mm" version="1.1" style="shape-rendering:geometricPrecision; text-rendering:geometricPrecision; image-rendering:optimizeQuality; fill-rule:evenodd; clip-rule:evenodd"
viewBox="0 0 239.36 233.54"
 xmlns:xlink="http://www.w3.org/1999/xlink"
 xmlns:xodm="http://www.corel.com/coreldraw/odm/2003">
 <defs>
  <style type="text/css">
   <![CDATA[
    .fil0 {fill:#330000}
    .fil1 {fill:#FE9900}
   ]]>
  </style>
 </defs>
 <g id="Слой_x0020_1">
  <metadata id="CorelCorpID_0Corel-Layer"/>
  <g id="_2519684301712">
   <path class="fil0" d="M158.13 87.59c0,-1.95 0.04,-2.32 2.06,-2.32l18.25 0c1.71,0 2.04,0.33 2.04,2.04l-0.32 77.51c-3.89,0.38 -15.09,0.17 -19.69,0.17 -2.02,0 -2.34,-0.39 -2.34,-2.46l0 -74.94zm-106.62 77.31c-2.07,0 -2.41,-0.3 -1.73,-2.42l3.45 -9.84c8.91,-26.31 18.61,-52.93 27.51,-79.23 0.7,-2.07 1.71,-4.55 2.08,-6.77 0.85,-5.08 -0.44,-6.78 2.07,-6.78l24.13 0c2.41,0 1.95,0.06 2.65,2.12l27.01 76.14c1.53,4.41 3.16,8.82 4.71,13.27 4.92,14.15 5.76,13.54 1.04,13.51l-10.79 -0c-10.33,0 -8.85,0.79 -10.37,-3.62l-7.23 -21.2 -37.18 0.01c-1.11,4.75 -4.64,14.24 -6.38,19.91 -1.21,3.92 -1.02,4.9 -3.55,4.9l-17.42 0zm116.1 -112.86c17.49,-2.65 19.04,22.84 3.93,24.79 -17.45,2.25 -19.7,-22.4 -3.93,-24.79zm71.5 142.84c0.43,-4.52 0.17,-10 0.17,-14.66l0 -132.74c0,-9.84 -0.63,-17.05 -4.87,-24.73 -6.21,-11.25 -18.2,-22.1 -36.33,-22.55 -19.49,-0.48 -39.62,-0.01 -59.19,-0.01 -29.5,0 -59,0 -88.5,0 -10.85,0 -16.52,-0.21 -25.72,3.87 -11.76,5.21 -22.84,17.75 -24.42,34.44 -0.44,4.64 -0.19,10.07 -0.19,14.79l0 132.74c0,9.78 0.66,17.1 4.87,24.73 6.21,11.25 18.2,22.1 36.33,22.55 19.49,0.48 39.62,0.01 59.19,0.01l88.49 0c10.84,0 16.52,0.21 25.72,-3.87 11.83,-5.24 22.84,-17.76 24.43,-34.57z"/>
   <path class="fil1" d="M94.37 88.97c0.63,-2.06 2.12,-9.21 2.77,-10.44 0,0 12.68,41.04 12.68,41.32l-24.99 -0.03 9.55 -30.84zm-42.86 75.94l17.42 0c2.53,0 2.34,-0.99 3.55,-4.9 1.75,-5.66 5.27,-15.16 6.38,-19.91l37.18 -0.01 7.23 21.2c1.52,4.4 0.04,3.62 10.37,3.62l10.79 0c4.72,0.03 3.88,0.65 -1.04,-13.51 -1.55,-4.45 -3.17,-8.86 -4.71,-13.27l-27.01 -76.14c-0.7,-2.06 -0.24,-2.12 -2.65,-2.12l-24.13 0c-2.51,0 -1.23,1.7 -2.07,6.78 -0.37,2.22 -1.38,4.69 -2.08,6.77 -8.91,26.31 -18.6,52.92 -27.51,79.23l-3.45 9.84c-0.68,2.12 -0.34,2.42 1.73,2.42z"/>
   <path class="fil1" d="M158.13 87.59l0 74.94c0,2.06 0.32,2.46 2.34,2.46 4.61,0 15.8,0.21 19.69,-0.17l0.32 -77.51c0,-1.72 -0.33,-2.04 -2.04,-2.04l-18.25 0c-2.02,0 -2.06,0.37 -2.06,2.32z"/>
   <path class="fil0" d="M84.83 119.82l24.99 0.03c-0.01,-0.27 -12.68,-41.31 -12.68,-41.32 -0.64,1.23 -2.14,8.38 -2.77,10.44l-9.55 30.84z"/>
   <path class="fil1" d="M167.61 52.05c-15.77,2.39 -13.53,27.04 3.93,24.79 15.11,-1.95 13.56,-27.44 -3.93,-24.79z"/>
  </g>
 </g>
</svg>
