<?xml version="1.0" encoding="UTF-8"?>
<!DOCTYPE svg PUBLIC "-//W3C//DTD SVG 1.1//EN" "http://www.w3.org/Graphics/SVG/1.1/DTD/svg11.dtd">
<!-- Creator: CorelDRAW -->
<svg xmlns="http://www.w3.org/2000/svg" xml:space="preserve" width="30mm" height="28.4212mm" version="1.1" style="shape-rendering:geometricPrecision; text-rendering:geometricPrecision; image-rendering:optimizeQuality; fill-rule:evenodd; clip-rule:evenodd"
viewBox="0 0 2985.81 2828.67"
 xmlns:xlink="http://www.w3.org/1999/xlink"
 xmlns:xodm="http://www.corel.com/coreldraw/odm/2003">
 <defs>
  <style type="text/css">
   <![CDATA[
    .fil0 {fill:#219F0D}
   ]]>
  </style>
 </defs>
 <g id="Слой_x0020_1">
  <metadata id="CorelCorpID_0Corel-Layer"/>
  <path class="fil0" d="M1779.47 0l-572.22 0c-68.47,30.81 -105.48,9.3 -214.69,103.51 -39.36,33.96 -109.46,127.55 -115.37,208.52l160.1 0.03c75.01,-184.3 238.44,-156.55 454.3,-154.67 71,0.62 235.75,-7.7 295.43,8.83 41.91,11.6 67.26,26.96 94.54,54.36 39,39.18 38.06,32.92 64.27,91.78l162.79 0.6c-10.78,-85.58 -73.57,-167.04 -114.29,-205.27 -99.69,-93.65 -150.51,-74.75 -214.86,-107.68zm-485.91 1883.37l377.39 0.33 -0.4 188.91 -377.75 -0.67 0.77 -188.57zm648.01 -1467.08l153.85 0c69.69,0 126.71,57.01 126.71,126.7 0,13.07 -2,25.69 -5.72,37.57l635.43 0c73.68,0 133.97,60.28 133.97,133.97l0 269.4 -585.06 287.26c-197.87,98.63 -398.19,206.67 -588.04,292.71l-64.77 -41.4c-56.17,-26.85 -475.71,-30.2 -539.14,2.84l-57.99 38.49 -1150.8 -569 0 -280.3c0,-73.69 60.29,-133.97 133.97,-133.97l635.43 0c-3.72,-11.88 -5.72,-24.5 -5.72,-37.57 0,-69.69 57.02,-126.7 126.71,-126.7l153.85 0c69.69,0 126.71,57.01 126.71,126.7 0,13.07 -2,25.69 -5.72,37.57l655.36 0c-3.72,-11.88 -5.72,-24.5 -5.72,-37.57 0,-69.69 57.02,-126.7 126.71,-126.7zm1044.24 841.65l0 1436.76c0,73.68 -60.29,133.97 -133.97,133.97l-2717.86 0c-73.68,0 -133.97,-60.29 -133.97,-133.97l0 -1426.42 1104.16 545.67c4.64,119.34 -29.14,287.42 38.79,370.55 82.58,101.06 187.11,76.86 338.92,76.86 153.09,0 249.4,25.31 334.46,-71.9 73.92,-84.47 37.04,-252.39 45.38,-372.21l1124.1 -559.31z"/>
 </g>
</svg>
