<?xml version="1.0" encoding="UTF-8"?>
<!DOCTYPE svg PUBLIC "-//W3C//DTD SVG 1.1//EN" "http://www.w3.org/Graphics/SVG/1.1/DTD/svg11.dtd">
<!-- Creator: CorelDRAW -->
<svg xmlns="http://www.w3.org/2000/svg" xml:space="preserve" width="56.2404mm" height="56.372mm" version="1.1" style="shape-rendering:geometricPrecision; text-rendering:geometricPrecision; image-rendering:optimizeQuality; fill-rule:evenodd; clip-rule:evenodd"
viewBox="0 0 1887.32 1891.73"
 xmlns:xlink="http://www.w3.org/1999/xlink"
 xmlns:xodm="http://www.corel.com/coreldraw/odm/2003">
 <defs>
  <style type="text/css">
   <![CDATA[
    .fil0 {fill:#219F0D}
   ]]>
  </style>
 </defs>
 <g id="Слой_x0020_1">
  <metadata id="CorelCorpID_0Corel-Layer"/>
  <path class="fil0" d="M1625.62 575.65c44.68,154.13 121.06,263.94 79.79,473.37 -191.71,-35.37 -174.21,-45.89 -229.38,-214.85 -54.02,-165.45 -23.56,-234.73 149.58,-258.52zm-626.19 -280.45c-31.29,69.75 -159.84,136.36 -85.16,247.47 27.84,41.43 75.15,57.76 70.65,118.6 -10.23,138.21 -170.31,-4.46 -266.02,42.52 -173.17,85.02 111.26,233.84 218.37,241.63 138.85,10.1 233.35,-24.75 313.26,66.49 57.25,65.37 68.52,203.36 5.76,277.06 -63.06,74.04 -146.56,56.12 -185.99,193.82 -19.07,66.61 -15.47,86.72 -58.9,129.53 -31.78,31.32 -87.88,65.88 -147.66,34.98 -91,-47.04 9.27,-222.48 -79.2,-299.56 -46.03,-40.11 -70.3,-27.49 -78.89,-107.29 -6.46,-59.99 6.42,-126.46 -6.22,-185.76 -40.07,-188 -339.8,-78.03 -465.61,-293.09 -77.73,-132.87 178.25,-386.39 270.38,-449.43 75.64,-51.75 158.85,-93.12 262.69,-116.72 52.49,-11.93 209.16,-52.55 235.32,12.5 9.78,24.31 8.05,63.15 -2.76,87.25zm-991.41 781.34c58.37,473.82 508.22,878.28 1060.9,807 476.71,-61.48 883.09,-506.13 809.81,-1063.9 -62.2,-473.41 -503.86,-887.2 -1061.71,-810.4 -484.63,66.72 -878.66,501.78 -808.99,1067.3z"/>
 </g>
</svg>
