<?xml version="1.0" encoding="UTF-8"?>
<!DOCTYPE svg PUBLIC "-//W3C//DTD SVG 1.1//EN" "http://www.w3.org/Graphics/SVG/1.1/DTD/svg11.dtd">
<!-- Creator: CorelDRAW -->
<svg xmlns="http://www.w3.org/2000/svg" xml:space="preserve" width="19.3502mm" height="28.4201mm" version="1.1" style="shape-rendering:geometricPrecision; text-rendering:geometricPrecision; image-rendering:optimizeQuality; fill-rule:evenodd; clip-rule:evenodd"
viewBox="0 0 484.21 711.17"
 xmlns:xlink="http://www.w3.org/1999/xlink"
 xmlns:xodm="http://www.corel.com/coreldraw/odm/2003">
 <defs>
  <style type="text/css">
   <![CDATA[
    .fil0 {fill:#219F0D}
   ]]>
  </style>
 </defs>
 <g id="Слой_x0020_1">
  <metadata id="CorelCorpID_0Corel-Layer"/>
  <path class="fil0" d="M165.97 571.49c-14.8,-0.05 -46.67,10.63 -58.83,16.13 -16.66,7.52 -34.6,18.36 -42.15,31.96 -43.44,78.31 191.66,122.54 315.24,66.2 38.94,-17.75 63.51,-52.55 21.77,-83.39 -15.04,-11.11 -30.63,-17.52 -50.46,-23.65 -35.75,-11.05 -31.72,-9.96 -47.9,11.23l-32.48 41.62c-7.38,9.19 -24.11,41.85 -41.34,22.87l-63.86 -82.97zm63.18 -400.39c49.34,-7.91 89.04,28.16 95.45,69.96 7.55,49.19 -29.16,87.49 -69.7,94.06 -49.3,7.98 -89.26,-27.3 -96.03,-69.01 -8.16,-50.22 28.61,-88.33 70.28,-95.01zm-6.71 -170.15c-160.09,13.86 -267.26,169.87 -204,325.42 13.89,34.13 31.4,64.16 48.8,92.02 32.43,51.92 82.1,116.98 120.34,164.24l46.66 60.05c9.14,12.65 12.32,3.51 18.32,-4.45 10.25,-13.59 19.86,-26.1 30.25,-39.43 66.45,-85.21 162.9,-199.49 192.97,-303.5 24.74,-85.57 -8.81,-166.64 -52.27,-213.91 -40.19,-43.71 -108.25,-88.47 -201.08,-80.43z"/>
 </g>
</svg>
