<?xml version="1.0" encoding="UTF-8"?>
<!DOCTYPE svg PUBLIC "-//W3C//DTD SVG 1.1//EN" "http://www.w3.org/Graphics/SVG/1.1/DTD/svg11.dtd">
<!-- Creator: CorelDRAW -->
<svg xmlns="http://www.w3.org/2000/svg" xml:space="preserve" width="28.4164mm" height="28.42mm" version="1.1" style="shape-rendering:geometricPrecision; text-rendering:geometricPrecision; image-rendering:optimizeQuality; fill-rule:evenodd; clip-rule:evenodd"
viewBox="0 0 1802.4 1802.63"
 xmlns:xlink="http://www.w3.org/1999/xlink"
 xmlns:xodm="http://www.corel.com/coreldraw/odm/2003">
 <defs>
  <style type="text/css">
   <![CDATA[
    .fil0 {fill:#219F0D}
   ]]>
  </style>
 </defs>
 <g id="Слой_x0020_1">
  <metadata id="CorelCorpID_0Corel-Layer"/>
  <g id="_2519482336256">
   <path class="fil0" d="M944.4 0l-86.65 0c-7.47,3.13 -55.1,5.16 -68.12,6.79 -59.25,7.43 -125.11,22.42 -179.36,41.28 -363.65,126.43 -610.03,461.89 -610.28,858.04 -0.06,89.21 15.09,177.87 38.04,255.33 23.28,78.58 51.14,134.49 90.22,202.96 32.81,57.48 56.19,82.36 93.55,128.96 20.1,25.07 36.51,37.13 54.22,57.03l58.12 50.97c130.85,107.75 334.74,199.16 531.49,200.8 25.1,0.2 48.48,3.15 66.53,-8.33 30.72,-19.53 35.22,-71.44 -2.11,-94.44 -16.57,-10.22 -41.6,-8.3 -64.46,-8.49 -150.69,-1.22 -318.75,-69.27 -432.83,-153.66 -36.26,-26.82 -67.04,-54.67 -98.12,-85.98 -67.45,-67.93 -121.34,-151.04 -161.42,-243.05 -65.97,-151.44 -80.04,-337.36 -38.1,-500.72 54.15,-210.9 193.74,-393.43 384.2,-497.53 210.98,-115.31 477.99,-136.47 711.6,-26.96 72.35,33.92 124.9,70.12 178.88,114.13 13.53,11.03 25.53,20.99 39.22,35.67 11.62,12.46 24.57,23.28 36.13,36.67 23.04,26.7 42.94,49.2 64.67,80.9 92.24,134.53 137.96,275.23 141.9,445.62 1.91,82.65 -22.88,178.86 -53.9,240.19 -68.03,134.56 -174.53,244.1 -342.15,246.16l18.32 -13.76c39.42,-28.04 77.55,-73.56 90.03,-122.31 8.18,-31.94 12.51,-68.04 19.16,-102.23 11.92,-61.22 -168.08,-130.86 -234.01,-128.71 -49.95,1.62 -46.14,25.48 -55.3,65.98 -5.55,24.51 -16.45,77.31 -28.51,92.75 -22.94,29.38 -67.89,-0.84 -84.15,-15.07 -29.42,-25.75 -98.53,-95.21 -121.78,-120.84l-182.93 -181.07c-10.81,-10.54 -19.6,-19.83 -30.08,-30.61 -26.79,-27.57 -75.44,-69.11 -69.18,-110.12 4.36,-28.57 50.1,-34.52 79.63,-41.74 41.89,-10.22 75.5,-9.04 85.98,-35.35 23.23,-58.27 -46.2,-224.14 -99.89,-256.35 -15.43,-9.26 -31.39,-1.2 -49.6,1.67 -17.2,2.71 -34.14,5.4 -52.07,8.68 -47.49,8.68 -52.15,12.17 -85.78,35.46 -141.51,98.03 -144.36,291.98 -64.46,434.59 31.82,56.81 69.57,92.4 106.2,136.66l57.85 63.43c36.5,41.32 80.05,83.51 118.22,122.45l45.1 45.89c7.29,6.34 8.85,9.52 15.17,15.07 11.68,10.28 18.41,16.66 31.29,29.43l65.84 55.61c164.6,129.74 378.51,216.47 587.53,130.48 73.35,-30.19 93.85,-50.24 148.42,-94.4 18.69,-15.12 42.65,-42.47 58.09,-63.18 17.61,-23.64 33.26,-44.6 48.97,-72.38 106.63,-188.59 109.62,-393.79 48.53,-597.94 -86.34,-288.48 -324.84,-517.11 -612.05,-599.45 -32.25,-9.24 -64.52,-16.55 -98.9,-22.47l-106.92 -12.52z"/>
   <path class="fil0" d="M919.82 366.7c142.04,-5.34 293.15,67.02 384.35,159.51 87.07,88.29 156.62,211.37 159.85,384.34l91.15 0.08c2.71,-93.87 -23.49,-191.13 -56.08,-261.63 -34.64,-74.92 -60.67,-109.04 -110.2,-167.03 -25.14,-29.44 -73.54,-71.25 -105.74,-92.57 -109.5,-72.52 -220.79,-115.07 -363.3,-114.31l-0.03 91.62z"/>
   <path class="fil0" d="M920.02 525.74c217.14,3.63 381.09,167.32 384.65,384.72 17.64,0.29 78.88,2.35 92,-1.12 1.85,-109.6 -43.09,-225.84 -110.73,-304.22 -47.67,-55.25 -92.49,-93.33 -169.82,-129.38 -48.11,-22.43 -130.73,-44.76 -195.11,-42.1 -3.4,13.85 -1.55,74.28 -1,92.11z"/>
  </g>
 </g>
</svg>
