<?xml version="1.0" encoding="UTF-8"?>
<!DOCTYPE svg PUBLIC "-//W3C//DTD SVG 1.1//EN" "http://www.w3.org/Graphics/SVG/1.1/DTD/svg11.dtd">
<!-- Creator: CorelDRAW -->
<svg xmlns="http://www.w3.org/2000/svg" xml:space="preserve" width="30mm" height="29.313mm" version="1.1" style="shape-rendering:geometricPrecision; text-rendering:geometricPrecision; image-rendering:optimizeQuality; fill-rule:evenodd; clip-rule:evenodd"
viewBox="0 0 489.16 477.96"
 xmlns:xlink="http://www.w3.org/1999/xlink"
 xmlns:xodm="http://www.corel.com/coreldraw/odm/2003">
 <defs>
  <style type="text/css">
   <![CDATA[
    .fil0 {fill:#001E38}
    .fil1 {fill:#30A8FF}
   ]]>
  </style>
 </defs>
 <g id="Слой_x0020_1">
  <metadata id="CorelCorpID_0Corel-Layer"/>
  <g id="_2519724633744">
   <path class="fil0" d="M287.4 329.9l0.02 -37.11c4.58,0.44 25.49,9 45.17,10.41 8.17,0.59 18.65,0.59 23.91,-3.87 7.15,-6.06 1.28,-13.99 -3.61,-17.63 -14.29,-10.63 -54.17,-12.92 -64.38,-47.59 -5.09,-17.3 0.38,-32.75 8.75,-43.44 7.52,-9.61 19.7,-16.56 36.82,-19.35 16.86,-2.74 34.61,-1.1 49.97,3.57 13.01,3.96 11.7,3.67 11.69,9.18l0.03 35c-0.81,-0.24 -2.68,-1.52 -4.08,-2.11l-13.86 -5.37c-6.51,-2.12 -13.56,-3.98 -20.88,-4.69 -27.92,-2.74 -29.75,13.28 -19.78,20.35 9.41,6.67 24.64,9.67 35.58,15.67 11.75,6.44 20.62,13.72 26.79,24.76 13.06,23.38 -0.76,54.89 -26.94,66.05 -20.02,8.53 -44.57,8.98 -66.3,3.12 -3.89,-1.05 -16.77,-5.09 -18.89,-6.95zm-175.1 -207.35c16.81,-0.33 33.98,-0.01 50.83,-0.01 15.36,0 34.19,-1.27 48.23,2.65 24.67,6.88 44.14,26.21 50.87,50.72 11.8,42.97 -16.08,83.08 -56.01,91.26 -10.83,2.22 -36.7,1.31 -49.25,1.41l-0.03 66.29 -44.73 -0.09 0.09 -212.23zm-111.9 274.17c2.81,34.91 25.01,60.64 48.67,71.97 17.97,8.61 29.26,9.08 51.22,9.08 60.41,0 120.81,0 181.22,0 40.19,0 80.67,0.48 120.82,-0 36.95,-0.45 63.18,-22.65 75.61,-45.09 8.77,-15.84 11.07,-28.59 11.07,-49.37l0 -271.82c0,-9.6 0.5,-20.65 -0.23,-30.09 -2.7,-34.93 -25.04,-60.77 -48.66,-72.08 -17.98,-8.61 -29.26,-9.08 -51.22,-9.08l-181.22 0c-40.19,0 -80.67,-0.49 -120.82,0 -36.91,0.45 -63.25,22.66 -75.61,45.09 -8.76,15.9 -11.07,28.52 -11.07,49.37l0 271.82c0,9.58 -0.53,20.81 0.23,30.2z"/>
   <path class="fil1" d="M156.98 229.93l0 -68.8c8.15,-0.08 16.32,-0.02 24.46,-0.02 8.49,0 13.82,0.39 20.6,3.88 24.2,12.46 25.41,47.47 0.27,61.01 -6.29,3.39 -12.47,3.97 -20.57,3.97 -8.05,0 -16.8,0.32 -24.77,-0.04zm-44.76 104.84l44.73 0.09 0.03 -66.29c12.55,-0.11 38.42,0.8 49.25,-1.41 39.93,-8.18 67.81,-48.28 56.01,-91.26 -6.73,-24.51 -26.19,-43.83 -50.87,-50.72 -14.04,-3.92 -32.88,-2.65 -48.23,-2.65 -16.85,0 -34.01,-0.32 -50.83,0.01l-0.09 212.23z"/>
   <path class="fil1" d="M287.4 329.9c2.12,1.86 15,5.9 18.89,6.95 21.74,5.86 46.28,5.41 66.3,-3.12 26.19,-11.16 40,-42.67 26.94,-66.05 -6.17,-11.05 -15.05,-18.32 -26.79,-24.76 -10.94,-6 -26.16,-9 -35.58,-15.67 -9.97,-7.07 -8.14,-23.09 19.78,-20.35 7.32,0.72 14.37,2.57 20.88,4.69l13.86 5.37c1.4,0.59 3.27,1.87 4.08,2.11l-0.03 -35c0,-5.5 1.31,-5.22 -11.69,-9.18 -15.35,-4.67 -33.11,-6.31 -49.97,-3.57 -17.12,2.78 -29.3,9.74 -36.82,19.35 -8.37,10.69 -13.84,26.14 -8.75,43.44 10.21,34.67 50.09,36.96 64.38,47.59 4.89,3.64 10.76,11.57 3.61,17.63 -5.26,4.45 -15.73,4.45 -23.91,3.87 -19.68,-1.41 -40.59,-9.98 -45.17,-10.41l-0.02 37.11z"/>
   <path class="fil0" d="M156.98 229.93c7.97,0.36 16.71,0.04 24.77,0.04 8.1,0 14.28,-0.59 20.57,-3.97 25.14,-13.54 23.93,-48.54 -0.27,-61.01 -6.78,-3.49 -12.11,-3.88 -20.6,-3.88 -8.14,0 -16.31,-0.06 -24.46,0.02l0 68.8z"/>
  </g>
 </g>
</svg>
