<?xml version="1.0" encoding="UTF-8"?>
<!DOCTYPE svg PUBLIC "-//W3C//DTD SVG 1.1//EN" "http://www.w3.org/Graphics/SVG/1.1/DTD/svg11.dtd">
<!-- Creator: CorelDRAW -->
<svg xmlns="http://www.w3.org/2000/svg" xml:space="preserve" width="23.4339mm" height="35.5558mm" version="1.1" style="shape-rendering:geometricPrecision; text-rendering:geometricPrecision; image-rendering:optimizeQuality; fill-rule:evenodd; clip-rule:evenodd"
viewBox="0 0 508.04 770.83"
 xmlns:xlink="http://www.w3.org/1999/xlink"
 xmlns:xodm="http://www.corel.com/coreldraw/odm/2003">
 <defs>
  <style type="text/css">
   <![CDATA[
    .fil0 {fill:#219F0D}
   ]]>
  </style>
 </defs>
 <g id="Слой_x0020_1">
  <metadata id="CorelCorpID_0Corel-Layer"/>
  <path class="fil0" d="M64.24 544.48c0,14.57 12.22,106.87 13.9,122.22l11.05 88.37c1.18,4.62 3.17,7.93 6.2,10.62 2.57,2.29 7.13,5.15 11.67,5.15l320.42 0c8.77,0 16.16,-7.84 18.23,-15.42l3.88 -29.76c1.14,-9.99 2.42,-20.59 3.66,-29.99l17.82 -150.42c0,-8.19 -9.02,-19.12 -20.65,-19.12l-367.06 0c-9.08,0 -19.12,9.28 -19.12,18.35z"/>
  <path class="fil0" d="M190.41 188.12c-9.65,0 -13.25,-11.16 -19.89,2.28 -13.93,28.19 0.29,46.37 -0.29,50.95 -0.85,6.7 -5.81,10.19 -5.81,30.88 0,6.32 1.23,13.47 2.77,18.64 1.77,5.9 4.34,10.97 5.64,16.54 -15.92,3.71 -6.04,43.64 2.86,53.73 3.41,3.87 4.79,5.16 11.67,5.16 0.72,8.58 11.64,25.79 18.02,33.98 2.8,3.6 5.4,5.87 8.55,9.03 9.81,9.87 29.16,21.99 48.37,21.99 14.65,0 22.86,-0.33 36.46,-7.13 8.47,-4.24 14.38,-8.13 20.7,-14.48 9.54,-9.57 8.89,-8.73 15.95,-19.23 2.84,-4.22 10.55,-18.7 11.01,-24.17 16.99,0 22.94,-27.01 22.94,-41.3 0,-12.09 -4.23,-13.97 -6.88,-17.59 5.37,-11.18 9.89,-42.14 1.38,-54.91 -5.72,-8.57 -0.61,-30.54 -22.98,-52.72 -23.15,-22.95 -51.02,-25.43 -83.93,-25.43 -38.64,0 -58.12,13.76 -66.53,13.76zm38.61 24.8c7.56,-1.86 14.13,3.59 15.46,9.66 1.73,7.91 -3.7,14.08 -9.7,15.42 -16.51,3.69 -22.4,-20.99 -5.76,-25.08zm-22.73 -6.35c0.61,1.61 1.71,1.62 2.48,3.97 0.66,2 0.46,3.88 -0.36,5.58 -2.32,4.76 -6.02,2.77 -8.39,4.74 -0.96,2.45 -0.61,6.71 -0.02,9.09 4.23,1.49 6.39,0.61 8.31,4.75 2.29,4.93 -1.14,6.74 -2.17,9.42 0.4,2.1 3.13,4.29 4.35,5.52 3.01,3 3.3,0.21 6.01,-0.94 2.76,-1.17 5.93,-0.33 7.67,1.14 2.76,2.33 1.39,4.83 2.87,6.88 1.54,1.8 7.22,1.08 9.41,0.47 0.57,-1.31 0.52,-3.39 1.22,-4.86 1.52,-3.21 5.09,-4.67 8.53,-3.69 2.4,0.68 2.47,1.61 4.1,2.45 2.62,-0.2 6.42,-4.19 7.15,-6.55 0.01,-0.81 -7.13,-8.42 0.8,-12.88 3.78,-2.13 6.6,1.92 5.91,-8.36 -0.22,-3.33 -1.46,-2.69 -4.3,-3.41 -3.79,-0.95 -6.63,-5.86 -4.35,-10.14 0.89,-1.68 5.11,-3.05 -2.66,-8.99 -4.06,-3.11 -4.67,4.41 -11.49,1.31 -5.85,-2.66 -2.15,-8.36 -6.56,-8.9 -11.27,-1.36 -6.2,2.22 -9.43,6.44 -3.52,4.59 -7.64,2.85 -10.83,0.69 -2.2,-1.49 -3.45,0.23 -4.78,1.65 -1.37,1.46 -3.15,2.28 -3.44,4.64zm58.11 92.43c15.41,-3.33 27.9,7.81 30.43,19.94 3.28,15.75 -7.83,28.42 -20.38,30.87 -32.87,6.39 -44.34,-43.41 -10.05,-50.81zm15.01 -38.5c-3.92,-1.62 -10.73,-1.73 -15.91,-1.15 -6.45,0.72 -3.3,4.96 -5.87,10.54 -3.59,7.79 -14.86,11.51 -22.47,4.63 -1.64,-1.48 -2.73,-3.08 -5.55,-1.75 -2.08,0.98 -11.76,9.63 -11.67,13.12 0.05,1.85 11.73,13.15 1.86,23.16 -8.75,8.87 -16.31,-3.93 -15.5,17.89 0.32,8.62 1.01,6.59 8.18,8.14 4.52,0.98 7.36,3.95 9.16,7.24 7.41,13.6 -9.08,16.52 -1.96,24.03l8.19 8.21c4.51,3.39 6.35,-1.84 10.98,-3.59 9.89,-3.74 18.49,2.87 19.54,11.52 0.89,7.35 1.72,6.73 10.19,6.81 6.04,0.06 10.44,0.89 11.1,-5.04 1.03,-9.17 8.35,-16.76 19.02,-13.04 7,2.44 6.25,6.73 10.8,4.22 2.22,-1.23 7.13,-6.2 8.52,-7.92 5.2,-6.42 2.77,-5.13 -0.73,-10.48 -2.29,-3.5 -3.07,-8.99 -1.07,-13.41 6.35,-14.09 17.32,-2.9 18.07,-14.79 1.47,-23.38 -4.84,-9.88 -14.53,-19.04 -2.56,-2.43 -4.81,-6.63 -4.36,-11.74 1.18,-13.42 13.84,-6.58 -3.01,-22.55 -6.39,-6.07 -5.86,-0.97 -12.15,1.68 -5.86,2.46 -12.01,0.7 -15.5,-2.4 -4.69,-4.17 -3.37,-7.97 -5.34,-14.29z"/>
  <path class="fil0" d="M191.94 442.01c0,4.42 16.65,30.41 19.08,34.45l14.71 25.06c8.17,13.78 12.95,2.6 24.52,-8.1 1.75,-1.62 2.48,-1.81 4.22,-3.42 3.79,-3.5 8.83,-9.65 12.42,-12.05l16.24 15.11c2.81,2.48 5.32,5.31 8.03,8.02 6.17,6.17 10.41,11.4 16.59,0.92l24.65 -41.88c11.92,-19.93 14.49,-16.58 -5.98,-33.3 -7.88,-6.43 -7.56,-5.56 -21.2,5.35l-25.01 19.35c-15.39,11.61 -10.67,13.05 -26.16,0.25 -2.11,-1.75 -3.84,-2.96 -6.08,-4.63l-19.01 -14.64c-16.69,-13.04 -13.8,-12.67 -26.9,-1.02 -2.07,1.84 -10.12,7.92 -10.12,10.52z"/>
  <path class="fil0" d="M313.53 514.65l134.59 0c-1.4,-16.87 -21.13,-37.32 -35.97,-45.85 -13.41,-7.7 -28.06,-13.41 -43.28,-17.89 -4.1,-1.21 -12.5,-4.23 -16.34,-4.31 -0.42,5.02 -24.69,44.04 -29.02,51.28l-9.98 16.78z"/>
  <path class="fil0" d="M86.41 514.65l133.06 0c-0.19,-2.33 -7.58,-13.82 -9.32,-16.68l-19.89 -33.64c-2.44,-4.06 -7.98,-13.25 -9.03,-17.74 -9.42,2.19 -21.33,6.61 -31.19,9.34 -10.32,2.85 -19.66,7.17 -27.85,12.68l-16.86 12.96c-2.29,2.01 -2.85,3.53 -4.96,5.74 -3.51,3.68 -6.05,7.73 -8.57,12.07 -1.68,2.89 -5.29,11.06 -5.38,15.26z"/>
  <path class="fil0" d="M443.53 250.06c0,10.11 2.8,18.96 9.34,25.07 31.02,29 73.87,-15 46.31,-44.78 -19.91,-21.51 -55.65,-6.01 -55.65,19.71z"/>
  <path class="fil0" d="M58.12 81.06c0,10.35 2.07,19.7 10.14,26.57 23.17,19.71 54.1,1.33 54.1,-23.51 0,-22.87 -22.83,-38.46 -43.5,-30.5 -10.8,4.16 -20.74,15.04 -20.74,27.44z"/>
  <path class="fil0" d="M-0 252.36c0,28.01 34.3,42.63 54.52,23.16 21.32,-20.54 4.72,-55.28 -20.1,-55.28 -10.72,0 -18.1,2.11 -25.45,9.72 -4.7,4.86 -8.96,13.1 -8.96,22.4z"/>
  <path class="fil0" d="M385.42 83.35c0,9.48 4.17,17.36 8.97,22.39 5.54,5.8 11.54,9.09 22.05,10.08 16.23,1.52 33.22,-13.65 33.22,-29.41 0,-10.42 -2.03,-19.61 -10.15,-26.56 -17.93,-15.36 -42.75,-8.11 -51.04,10.49 -1.29,2.89 -3.05,8.91 -3.05,13.01z"/>
  <path class="fil0" d="M221.77 31.35c0,35.16 46.63,44.89 61.4,13.99 10.07,-21.06 -7.39,-45.34 -26.23,-45.34 -11.47,0 -17.25,0.74 -26.21,9.74 -4.84,4.86 -8.97,12.23 -8.97,21.62z"/>
  <path class="fil0" d="M321.18 172.82l11.48 5.34 59.07 -59.45c-4.29,-2.94 -5.85,-4.49 -8.6,-8.6 -3.13,2.09 -26.45,26.07 -31.16,30.78 -3.08,3.08 -29.84,28.42 -30.78,31.93z"/>
  <path class="fil0" d="M247.77 162.88l12.23 0 0 -87.94c-4.97,1.16 -7.26,1.16 -12.23,0l0 87.94z"/>
  <path class="fil0" d="M116.24 118.53l54.48 54.87c8.16,-1.2 6.86,-3.54 19.69,3.25 -1.01,-3.79 -43.99,-45.14 -48.75,-49.9 -4.16,-4.17 -12.91,-13.88 -17.01,-16.63 -3.18,4.76 -3.65,5.22 -8.41,8.41z"/>
  <path class="fil0" d="M75.71 258.47l78 0c0.1,-4.55 1.95,-8.13 2.29,-12.24l-80.29 0 0 12.24z"/>
  <path class="fil0" d="M380.06 258.47l52 0 0 -12.24 -58.12 0 2.75 6.43c1.03,2.91 0.55,5.81 3.37,5.81z"/>
  <path class="fil0" d="M246.24 514.65l41.3 0c-0.84,-3.16 -2.27,-2.74 -4.79,-5.15 -4.25,-4.04 -12.3,-13.12 -15.85,-15.5 -4.53,3.03 -11.18,11.46 -15.52,15.07 -2.36,1.96 -4.26,2.32 -5.13,5.58z"/>
 </g>
</svg>
